<svg width="168" height="160" viewBox="0 0 168 160" fill="none" xmlns="http://www.w3.org/2000/svg">
<path d="M137.5 49.0625V80.9374C137.5 88.8749 134.875 95.5625 130.188 100.187C125.563 104.875 118.875 107.5 110.938 107.5V118.812C110.938 123.062 106.187 125.625 102.687 123.25L96.625 119.25C97.1875 117.312 97.4375 115.187 97.4375 112.937V87.5002C97.4375 74.7502 88.9375 66.25 76.1875 66.25H33.75C32.875 66.25 32.0625 66.3126 31.25 66.3751V49.0625C31.25 33.125 41.875 22.5 57.8125 22.5H110.938C126.875 22.5 137.5 33.125 137.5 49.0625Z" stroke="#888888" stroke-width="1.5" stroke-miterlimit="10" stroke-linecap="round" stroke-linejoin="round"/>
<path d="M97.4375 87.5002V112.937C97.4375 115.187 97.1875 117.312 96.625 119.25C94.3125 128.437 86.6875 134.187 76.1875 134.187H59.1875L40.3125 146.75C37.5 148.688 33.75 146.625 33.75 143.25V134.187C27.375 134.187 22.0625 132.063 18.375 128.375C14.625 124.625 12.5 119.312 12.5 112.937V87.5002C12.5 75.6252 19.875 67.4376 31.25 66.3751C32.0625 66.3126 32.875 66.25 33.75 66.25H76.1875C88.9375 66.25 97.4375 74.7502 97.4375 87.5002Z" stroke="#888888" stroke-width="1.5" stroke-miterlimit="10" stroke-linecap="round" stroke-linejoin="round"/>
<path d="M117.564 82.6615C135.973 82.6615 150.897 67.9242 150.897 49.7448C150.897 31.5654 135.973 16.8281 117.564 16.8281C99.1541 16.8281 84.2302 31.5654 84.2302 49.7448C84.2302 67.9242 99.1541 82.6615 117.564 82.6615Z" fill="white" stroke="#888888" stroke-width="2" stroke-linecap="round" stroke-linejoin="round"/>
<path d="M117.564 87.6615C138.675 87.6615 155.897 70.7447 155.897 49.7448C155.897 28.7449 138.675 11.8281 117.564 11.8281C96.4521 11.8281 79.2302 28.7449 79.2302 49.7448C79.2302 70.7447 96.4521 87.6615 117.564 87.6615Z" fill="white" stroke="white" stroke-width="10" stroke-linecap="round" stroke-linejoin="round"/>
<path d="M127.563 39.8691L107.563 59.6191" stroke="#888888" stroke-width="2" stroke-linecap="round" stroke-linejoin="round"/>
<path d="M107.563 39.8691L127.563 59.6191" stroke="#888888" stroke-width="2" stroke-linecap="round" stroke-linejoin="round"/>
<path d="M127.564 73.5768C145.973 73.5768 160.897 58.653 160.897 40.2435C160.897 21.834 145.973 6.91016 127.564 6.91016C109.154 6.91016 94.2302 21.834 94.2302 40.2435C94.2302 58.653 109.154 73.5768 127.564 73.5768Z" fill="white" stroke="#888888" stroke-width="2" stroke-linecap="round" stroke-linejoin="round"/>
<path d="M127.564 73.5768C145.973 73.5768 160.897 58.653 160.897 40.2435C160.897 21.834 145.973 6.91016 127.564 6.91016C109.154 6.91016 94.2302 21.834 94.2302 40.2435C94.2302 58.653 109.154 73.5768 127.564 73.5768Z" fill="white" stroke="#888888" stroke-width="2" stroke-linecap="round" stroke-linejoin="round"/>
<path d="M137.563 30.2441L117.563 50.2441" stroke="#888888" stroke-width="2" stroke-linecap="round" stroke-linejoin="round"/>
<path d="M117.563 30.2441L137.563 50.2441" stroke="#888888" stroke-width="2" stroke-linecap="round" stroke-linejoin="round"/>
</svg>
