<svg width="168" height="160" viewBox="0 0 168 160" fill="none" xmlns="http://www.w3.org/2000/svg">
<path d="M71.875 141.25C104.667 141.25 131.25 114.667 131.25 81.875C131.25 49.0831 104.667 22.5 71.875 22.5C39.0831 22.5 12.5 49.0831 12.5 81.875C12.5 114.667 39.0831 141.25 71.875 141.25Z" stroke="#888888" stroke-width="1.5" stroke-linecap="round" stroke-linejoin="round"/>
<path d="M137.5 147.5L125 135" stroke="#888888" stroke-width="1.5" stroke-linecap="round" stroke-linejoin="round"/>
<path d="M117.564 82.6615C135.973 82.6615 150.897 67.9242 150.897 49.7448C150.897 31.5654 135.973 16.8281 117.564 16.8281C99.1541 16.8281 84.2302 31.5654 84.2302 49.7448C84.2302 67.9242 99.1541 82.6615 117.564 82.6615Z" fill="white" stroke="#888888" stroke-width="2" stroke-linecap="round" stroke-linejoin="round"/>
<path d="M117.564 87.6615C138.675 87.6615 155.897 70.7447 155.897 49.7448C155.897 28.7449 138.675 11.8281 117.564 11.8281C96.4521 11.8281 79.2302 28.7449 79.2302 49.7448C79.2302 70.7447 96.4521 87.6615 117.564 87.6615Z" fill="white" stroke="white" stroke-width="10" stroke-linecap="round" stroke-linejoin="round"/>
<path d="M127.563 39.8691L107.563 59.6191" stroke="#888888" stroke-width="2" stroke-linecap="round" stroke-linejoin="round"/>
<path d="M107.563 39.8691L127.563 59.6191" stroke="#888888" stroke-width="2" stroke-linecap="round" stroke-linejoin="round"/>
<path d="M127.564 73.5768C145.973 73.5768 160.897 58.653 160.897 40.2435C160.897 21.834 145.973 6.91016 127.564 6.91016C109.154 6.91016 94.2302 21.834 94.2302 40.2435C94.2302 58.653 109.154 73.5768 127.564 73.5768Z" fill="white" stroke="#888888" stroke-width="2" stroke-linecap="round" stroke-linejoin="round"/>
<path d="M127.564 73.5768C145.973 73.5768 160.897 58.653 160.897 40.2435C160.897 21.834 145.973 6.91016 127.564 6.91016C109.154 6.91016 94.2302 21.834 94.2302 40.2435C94.2302 58.653 109.154 73.5768 127.564 73.5768Z" fill="white" stroke="#888888" stroke-width="2" stroke-linecap="round" stroke-linejoin="round"/>
<path d="M137.563 30.2441L117.563 50.2441" stroke="#888888" stroke-width="2" stroke-linecap="round" stroke-linejoin="round"/>
<path d="M117.563 30.2441L137.563 50.2441" stroke="#888888" stroke-width="2" stroke-linecap="round" stroke-linejoin="round"/>
</svg>
