<svg width="72" height="106" viewBox="0 0 72 106" fill="none" xmlns="http://www.w3.org/2000/svg">
<path d="M0.14508 79.592C0.905869 85.5761 3.71901 91.1109 8.10474 95.2526C14.3742 101.237 21.6094 105.273 30.4142 105.955C32.6155 106.12 34.8274 105.833 36.914 105.113C39.0005 104.392 40.9177 103.252 42.5477 101.763C42.8018 101.587 43.0065 101.349 43.1424 101.071C43.2783 100.793 43.3407 100.485 43.3239 100.177C43.2657 99.3979 43.4107 98.6173 43.7448 97.9113C44.0789 97.2054 44.5905 96.5983 45.2297 96.1495C45.421 96.0213 45.5835 95.8546 45.7067 95.6601C45.83 95.4656 45.9113 95.2475 45.9455 95.0198C46.8078 88.759 40.2452 81.058 33.2687 82.8C31.7555 83.1847 30.3716 83.9644 29.2586 85.0594L28.9568 85.3785C28.9251 85.4125 28.887 85.4399 28.8447 85.4591C28.8024 85.4784 28.7567 85.4891 28.7103 85.4907C28.6639 85.4923 28.6175 85.4847 28.574 85.4684C28.5305 85.4522 28.4906 85.4274 28.4566 85.3957C28.4227 85.364 28.3953 85.3259 28.376 85.2836C28.3568 85.2413 28.346 85.1957 28.3444 85.1492C28.3428 85.1028 28.3504 85.0565 28.3667 85.0129C28.383 84.9694 28.4077 84.9295 28.4394 84.8956C28.6697 84.6566 28.9341 84.4532 29.2241 84.2919C30.9489 83.326 31.0179 82.1187 30.2762 80.4285C29.319 78.2639 29.2586 77.4447 27.5167 75.6941C27.0345 75.3197 26.4285 75.1418 25.8205 75.1962C25.2125 75.2506 24.6477 75.5333 24.2397 75.9873C22.6012 77.9362 21.9803 78.4192 21.1006 80.8338C19.6087 84.9991 20.4884 88.0691 24.0758 91.4151C25.2917 92.5448 26.8095 93.0277 28.2066 93.9159C29.0689 94.4506 29.3449 93.8038 29.4052 92.7431C29.6208 88.9659 31.8544 87.0687 35.6574 87.155C39.1069 87.224 43.0307 92.1567 42.0993 95.4682C41.7026 96.9084 40.2538 97.4517 38.7964 96.7359C38.5416 96.6154 38.3038 96.4617 38.0893 96.2788C36.9165 95.3389 35.7695 94.3299 34.0534 95.1577C34.0147 95.1759 33.9722 95.1845 33.9295 95.1828C33.8868 95.1811 33.8451 95.1692 33.8079 95.1481C33.7708 95.127 33.7392 95.0973 33.7159 95.0614C33.6926 95.0256 33.6782 94.9847 33.674 94.9422C33.6719 94.8886 33.6855 94.8357 33.7131 94.7897C33.7407 94.7438 33.781 94.7069 33.8292 94.6835C35.1745 94.0798 36.5112 93.4589 37.8737 92.8983C38.4484 92.6983 39.0505 92.5878 39.6588 92.5706C40.7454 92.5706 40.4522 92.0187 39.9175 91.1736C38.5291 88.9746 35.5281 87.8104 33.2514 88.69C30.9748 89.5696 29.8019 91.9756 30.19 94.7266C30.2504 95.1319 30.4918 95.5889 30.0779 95.8735C29.664 96.1581 28.8188 95.8045 28.448 95.6321C24.8606 93.9073 21.5491 92.0446 19.7726 88.2416C19.4223 87.6899 18.8825 87.2851 18.2548 87.1032C16.1075 86.2409 14.469 85.3785 13.5894 83.1363L12.8736 81.1443C12.8617 81.1127 12.8441 81.0835 12.8219 81.058C12.5718 80.7303 10.8385 78.3761 10.8902 76.6168C10.8916 76.5526 10.8735 76.4895 10.8385 76.4357C10.5021 75.9355 8.69978 73.1156 8.69115 70.7182C8.62216 69.7955 9.19133 69.7265 9.73462 70.0973C11.8129 71.5461 14.2362 71.8221 16.6336 72.2274C17.0562 72.278 17.484 72.1913 17.8536 71.9801C18.2232 71.7689 18.5151 71.4444 18.686 71.0545C18.8237 70.831 18.9734 70.6151 19.1344 70.4078C19.1344 70.4078 20.0227 68.9935 13.279 67.4153C11.6998 66.9358 10.2045 66.2143 8.84638 65.2767C8.07025 64.7161 6.55248 63.4312 6.57835 64.2591C6.62795 65.2463 6.7782 66.2258 7.02678 67.1825C7.02678 69.1918 4.31032 66.5012 4.51729 63.1294C4.51729 62.5947 4.37069 59.9731 3.99987 59.5764C1.25754 56.6271 0.300307 69.8558 0.231317 70.2439C0.231317 70.2439 -0.225738 77.1429 0.14508 79.592Z" fill="#7A6A56"/>
<path d="M7.47386 26.8492C7.47386 26.8492 6.13719 22.8392 5.74912 20.8126C5.63559 20.1615 5.44151 19.5271 5.17134 18.924C5.14268 18.8738 5.10127 18.8321 5.05129 18.8031C5.00131 18.7741 4.94455 18.7588 4.88675 18.7588C4.82896 18.7588 4.7722 18.7741 4.72222 18.8031C4.67224 18.8321 4.63083 18.8738 4.60217 18.924C3.7398 20.5366 1.1527 26.4007 5.36106 35.309C5.38023 35.3494 5.39018 35.3936 5.39018 35.4384C5.39018 35.4831 5.38023 35.5273 5.36106 35.5677C4.39463 38.0437 4.39463 40.7927 5.36106 43.2687C5.78241 44.2526 6.36537 45.1591 7.0858 45.9506C9.48318 48.2963 11.6305 50.8834 14.2866 52.8927C16.546 54.6175 18.9606 56.0921 21.3063 57.6789C21.4787 57.791 21.6771 58.0583 21.9703 57.7478C22.2259 57.3409 22.3265 56.8555 22.2537 56.3804C22.1808 55.9054 21.9394 55.4724 21.5736 55.1607C18.9666 53.4043 16.5401 51.3938 14.3297 49.1587C13.7433 48.5378 13.1827 47.9082 12.6567 47.2356C12.4066 46.9165 12.924 45.8903 13.2 46.2007C13.6484 46.7182 14.0624 47.2356 14.5798 47.7357C16.8892 50.116 19.4479 52.241 22.2117 54.0742C22.4705 54.2553 22.7982 54.7209 23.2207 54.2553C23.6433 53.7896 23.3846 53.3929 23.1 52.9876C20.9354 49.7709 18.4691 46.7958 16.0975 43.743C16.0975 43.743 10.061 35.4384 7.47386 26.8492Z" fill="#7A6A56"/>
<path d="M20.199 78.7899C21.139 76.6857 23.0276 72.7533 24.4591 71.1062C25.3818 70.0455 26.5719 68.2949 27.5895 67.3635C31.5133 61.3269 31.9962 57.3342 29.1504 52.5394C28.5388 51.6859 27.8581 50.8841 27.1152 50.142C25.4681 48.3396 24.8213 46.3045 23.0793 44.4849C22.9459 44.6561 22.8604 44.8598 22.8316 45.075C22.8028 45.2901 22.8318 45.5091 22.9155 45.7094C23.5536 48.9951 24.2263 51.9616 26.6323 54.3331C27.279 54.9713 26.822 55.3507 26.2356 56.1268C25.5014 57.0427 25.0092 58.1284 24.8042 59.2842C24.5993 60.44 24.6882 61.6288 25.0628 62.7412C25.2956 63.4656 25.0628 63.8105 24.5367 64.2762C21.4925 67.1652 18.1983 72.5463 18.9744 76.8496C18.9744 76.8496 18.8709 85.7751 20.2249 78.7899" fill="#7A6A56"/>
<path d="M56.916 61.7152C55.8931 63.1049 55.2001 64.7092 54.8894 66.4065C54.6516 67.5019 54.5073 68.6155 54.4583 69.7353C54.4583 70.4941 54.1392 70.7701 53.4148 70.6494C50.9225 70.2354 48.8097 72.0723 47.9388 74.4869C47.68 75.2113 47.6024 75.6597 48.5597 75.7201C48.9477 75.7201 49.422 75.8322 49.3272 76.3841C49.2323 76.936 48.7408 76.6859 48.3613 76.5911C44.2651 75.5735 41.6262 77.945 40.3068 81.0237C40.0567 81.6273 40.4103 81.7912 40.7638 82.0585C41.1174 82.3258 41.4537 82.5414 41.9108 82.1447C44.3513 80.0319 45.1361 79.5576 48.2147 79.8163C49.9394 79.9716 55.2689 76.1254 56.2434 74.8146C57.7784 72.7794 57.1575 73.59 57.7784 71.7015C58.4597 68.3555 57.9422 65.6649 57.9853 62.0774C57.986 61.9525 57.9473 61.8306 57.8747 61.7289C57.8022 61.6273 57.6995 61.551 57.5812 61.5109C57.4629 61.4709 57.335 61.469 57.2156 61.5057C57.0962 61.5424 56.9914 61.6157 56.916 61.7152Z" fill="#7A6A56"/>
<path d="M61.7805 43.7173C62.3669 40.7767 65.3852 35.5162 67.11 33.0757C68.2543 31.471 69.5478 29.9782 70.9734 28.6173C71.0054 28.5878 71.0262 28.5482 71.0325 28.5052C71.0388 28.4621 71.0301 28.4182 71.0078 28.3808C70.9856 28.3435 70.9512 28.3148 70.9104 28.2998C70.8696 28.2848 70.8248 28.2842 70.7837 28.2982C69.7372 28.6079 68.7555 29.1046 67.8861 29.7642C63.5743 32.748 60.8406 36.9133 59.0468 41.8374C57.0146 47.1735 56.1729 52.8892 56.5805 58.5846C56.5883 58.6911 56.6289 58.7926 56.6967 58.8751C56.7645 58.9577 56.8562 59.0172 56.9592 59.0455C57.0622 59.0739 57.1714 59.0697 57.2719 59.0334C57.3724 58.9972 57.4592 58.9308 57.5204 58.8433C57.5204 58.8433 58.7709 58.8433 61.7805 43.7605" fill="#7A6A56"/>
<path d="M5.98236 47.1576C5.81117 46.9579 5.58795 46.8095 5.3375 46.729C5.08705 46.6484 4.81918 46.6389 4.56365 46.7014C4.30811 46.764 4.07492 46.8961 3.88997 47.0832C3.70503 47.2703 3.57557 47.5051 3.51599 47.7613C3.36446 48.3262 3.36446 48.9211 3.51599 49.486C3.822 51.1182 4.68078 52.5952 5.94787 53.6685C8.92384 56.5036 12.3001 58.8862 15.9686 60.7399C17.7364 61.5937 19.5568 62.334 21.4188 62.9562C22.0914 63.1977 22.3501 63.077 22.3587 62.2663C22.4108 61.5644 22.2292 60.865 21.8424 60.277C21.4556 59.689 20.8852 59.2454 20.2201 59.0152C16.0554 56.8833 12.2822 54.0607 9.06102 50.6675L8.99203 50.5899L5.98236 47.1576Z" fill="#7A6A56"/>
<path d="M51.9381 48.0727C51.8001 48.6764 51.6793 49.2973 51.6017 49.9182C50.9986 54.8385 50.9494 59.811 51.4551 64.7423C51.5241 65.3891 51.55 65.9841 52.5331 66.0876C53.5162 66.1911 53.6887 65.8634 53.8956 65.0096C54.5079 62.4225 54.2406 59.9216 54.1198 57.3432C53.8089 51.0117 55.04 44.6994 57.7073 38.9488C57.9746 38.3452 58.8887 37.638 57.8108 37.0085C56.7328 36.379 56.0084 36.9136 55.3617 37.7674C54.1112 39.4145 53.6369 41.3893 53.1023 43.3038C52.6279 44.9682 52.2399 46.6584 51.9381 48.0727Z" fill="#7A6A56"/>
<path d="M50.0587 20.8476C43.7222 22.9361 37.7514 26.0029 32.3629 29.937C29.8882 31.7163 27.5158 33.6338 25.257 35.6803C24.8998 35.9655 24.6046 36.3207 24.3895 36.724C24.1745 37.1274 24.0442 37.5704 24.0066 38.026C23.8801 39.5174 23.8571 41.0157 23.9376 42.5103C23.9376 42.769 23.9376 43.0622 24.248 43.1398C24.5585 43.2174 24.6533 42.907 24.7827 42.7C31.0435 32.3516 41.0642 26.8669 51.5161 21.8652C52.9994 21.1494 54.5258 20.5199 56.0349 19.8473C56.0349 19.8473 57.3457 18.9245 50.0932 20.8476" fill="#7A6A56"/>
<path d="M50.0165 45.2181C50.0426 45.1089 50.0335 44.9943 49.9907 44.8905C49.948 44.7867 49.8736 44.699 49.7782 44.6398C49.6827 44.5807 49.5711 44.553 49.4591 44.5609C49.3471 44.5687 49.2404 44.6116 49.1542 44.6835C48.0068 45.446 47.1548 46.5779 46.7395 47.8915C46.0928 49.7628 46.4205 51.6859 46.2739 53.5745C45.8772 58.6711 46.1014 63.7073 47.8175 68.5711C47.99 69.0713 47.8175 69.9681 48.6799 69.9681C49.3784 69.9681 50.6288 68.3382 50.465 67.7001C50.051 66.0271 49.9044 64.311 49.6026 62.6207C48.6109 56.7911 49.0334 51.0046 49.9475 45.2181" fill="#7A6A56"/>
<path d="M5.92068 59.5073C5.99409 59.8742 6.11286 60.2305 6.27425 60.568L6.37774 60.775C6.62785 61.2976 6.96626 61.7731 7.37809 62.1807C10.4395 65.1558 14.4581 66.2597 18.4164 67.4929C19.2788 67.7774 19.5806 67.1565 19.9773 66.6305C21.3571 64.9057 21.3657 64.9057 19.2443 64.2331C14.9324 62.9309 11.7503 60.7836 8.23183 58.0758C7.82652 57.774 7.00727 56.7822 6.39499 57.2134C6.39499 57.2134 5.53262 57.7136 5.92068 59.4642" fill="#7A6A56"/>
<path d="M39.2196 74.2795C38.0075 70.9044 37.71 67.2686 38.3572 63.7413C38.4203 63.4986 38.5355 63.2726 38.6948 63.079C38.8542 62.8854 39.0539 62.7288 39.2799 62.6203C40.3234 62.1115 40.4441 62.2839 40.5217 63.6206C40.7171 67.3638 41.4102 71.0643 42.5828 74.6244C42.5828 74.6244 43.3072 76.3492 41.7204 76.2629C41.1616 76.206 40.6313 75.9884 40.1936 75.6364C39.7558 75.2844 39.4295 74.8131 39.2541 74.2795" fill="#7A6A56"/>
<path d="M44.473 73.7274C44.473 71.9165 43.3605 70.278 43.0328 68.4929C42.2129 64.7674 41.8366 60.958 41.9117 57.1441C41.9344 56.5233 42.0627 55.9108 42.2912 55.3331C42.396 55.093 42.5816 54.8972 42.8157 54.7797C43.0499 54.6622 43.3178 54.6304 43.5729 54.6899C43.828 54.7493 44.0543 54.8962 44.2124 55.1051C44.3705 55.3139 44.4505 55.5716 44.4385 55.8333C44.1026 59.8392 44.5898 63.8715 45.87 67.6822C46.2727 68.6212 46.4709 69.6351 46.4516 70.6565C46.4323 71.678 46.1958 72.6837 45.7579 73.6067L45.6372 73.7964C45.3784 74.1414 44.4988 75.1848 44.473 73.7016" fill="#7A6A56"/>
<path d="M36.9844 70.4081C35.734 71.4257 35.6736 72.8486 35.7684 74.2629C36.0065 76.3784 36.6507 78.4281 37.6657 80.2995C37.9071 80.8255 38.0537 80.6703 38.3211 80.2995C38.733 79.8486 38.9929 79.2797 39.0641 78.6732C39.1353 78.0666 39.0141 77.453 38.7178 76.919C38.0191 75.3483 37.6213 73.6605 37.5449 71.9431C37.532 71.7709 37.532 71.5979 37.5449 71.4257C37.5449 71.0118 37.4932 70.158 37.0016 70.4254" fill="#7A6A56"/>
<path d="M11.0965 74.0819C10.7722 73.5228 10.5776 72.898 10.5273 72.2536C10.5273 71.7966 10.5877 71.3913 11.2172 71.7621C12.9093 72.6693 14.7911 73.1656 16.7105 73.2109C17.5729 73.2109 17.7023 73.6593 17.478 74.3837C17.2107 75.1439 17.1107 75.9528 17.1848 76.7552C17.3314 77.6779 16.9002 77.6952 16.219 77.5227C16.219 77.5227 12.1917 76.4706 11.0965 74.0732" fill="#7A6A56"/>
<path d="M34.3594 73.9778C34.3305 73.8161 34.2499 73.6682 34.1298 73.5563C34.0096 73.4443 33.8565 73.3744 33.6932 73.3569C33.5299 73.3394 33.3654 73.3753 33.2243 73.4593C33.0832 73.5432 32.9731 73.6707 32.9106 73.8226C32.8127 74.1013 32.749 74.3908 32.7209 74.6849C32.4647 76.7383 32.825 78.8216 33.7557 80.6698C34.0144 81.1613 36.3428 81.8081 36.7223 81.5321C36.7707 81.4978 36.8118 81.4542 36.8433 81.4039C36.8747 81.3536 36.8959 81.2975 36.9055 81.239C36.9151 81.1804 36.913 81.1205 36.8993 81.0628C36.8856 81.0051 36.8606 80.9506 36.8257 80.9026C35.6484 78.7459 34.8162 76.418 34.3594 74.0036" fill="#7A6A56"/>
<path d="M13.2729 78.8246C13.3428 79.3402 13.5361 79.8312 13.8364 80.2561C14.1367 80.6809 14.535 81.0271 14.9976 81.2651C15.4957 81.5439 16.0435 81.7226 16.6102 81.7912C17.2053 81.7912 17.6968 82.369 18.0762 81.5411C18.4557 80.7132 17.4467 79.4455 16.6878 79.1868C15.7909 78.911 14.9099 78.5857 14.049 78.2124C13.3418 77.8847 13.1866 78.152 13.2642 78.8246" fill="#7A6A56"/>
<path d="M45.0789 101.41C45.1332 101.533 45.2297 101.632 45.3511 101.69C45.4724 101.747 45.6104 101.759 45.7399 101.724C45.8695 101.688 45.982 101.607 46.0569 101.496C46.1318 101.385 46.1643 101.25 46.1482 101.116C46.0804 100.641 46.1492 100.157 46.3466 99.7194C46.6052 99.2124 46.9616 98.7617 47.3953 98.3932C47.829 98.0246 48.3313 97.7456 48.8733 97.5721C49.3113 97.4061 49.7649 97.2847 50.2273 97.2099C50.3522 97.1826 50.464 97.1134 50.5442 97.0138C50.6244 96.9142 50.6681 96.7902 50.6681 96.6623C50.6681 96.5344 50.6244 96.4104 50.5442 96.3108C50.464 96.2112 50.3522 96.142 50.2273 96.1147C48.0886 95.6059 46.0706 96.3907 45.3894 97.4772C45.0016 98.0489 44.7657 98.7098 44.7039 99.3977C44.642 100.086 44.7562 100.778 45.0358 101.41" fill="#7A6A56"/>
<path d="M30.5754 76.1767C30.4052 76.5075 30.3164 76.8741 30.3164 77.246C30.3164 77.618 30.4052 77.9846 30.5754 78.3154C30.6428 78.4413 30.7033 78.5709 30.7565 78.7034C31.0921 79.4932 31.3801 80.3024 31.6189 81.1267C31.7224 81.4975 31.8431 81.8856 32.4295 81.6786C33.0159 81.4716 33.0763 81.1957 32.8693 80.7041C32.3209 79.3571 31.9947 77.93 31.9035 76.4785C31.9035 76.1853 32.0242 75.6765 31.5499 75.6162C31.3515 75.5958 31.1518 75.6402 30.9808 75.7428C30.8098 75.8454 30.6766 76.0007 30.6013 76.1853" fill="#7A6A56"/>
<path d="M18.3673 85.8011C18.4055 85.8176 18.4474 85.8239 18.4889 85.8195C18.5303 85.815 18.5699 85.7999 18.6038 85.7756C18.6376 85.7512 18.6646 85.7186 18.6821 85.6807C18.6996 85.6429 18.707 85.6012 18.7036 85.5596C18.6001 83.352 18.488 83.3347 16.289 82.8604C15.7888 82.7483 15.3059 82.6017 14.8057 82.4551C14.7624 82.4424 14.7164 82.442 14.673 82.4541C14.6295 82.4662 14.5903 82.4902 14.5598 82.5234C14.5292 82.5566 14.5086 82.5977 14.5003 82.642C14.4919 82.6864 14.4961 82.7322 14.5125 82.7742C14.9954 83.9901 16.2372 84.9474 18.3673 85.8011Z" fill="#7A6A56"/>
<path d="M38.0632 94.1052C37.9336 94.1423 37.8172 94.2158 37.7279 94.3169C37.6387 94.4179 37.5801 94.5425 37.5593 94.6757C37.5384 94.809 37.5561 94.9454 37.6103 95.0689C37.6644 95.1925 37.7528 95.2979 37.8649 95.3729C38.322 95.6747 38.7273 95.9593 39.2016 96.2353C39.6759 96.5112 40.0639 96.4164 40.0122 95.7351C40.0122 95.6402 40.0122 95.5454 40.0122 95.4505C40.1243 93.5792 40.0122 93.5274 38.0891 94.1225" fill="#7A6A56"/>
<path d="M20.103 44.3469C20.103 44.3469 7.61588 14.5003 10.9532 3.59999C14.2906 -7.30035 2.99358 8.6276 8.40064 23.7363C13.8077 38.845 21.5604 48.2966 20.103 44.3469Z" fill="#7A6A56"/>
<path d="M37.6666 10.7666C32.4802 14.9644 27.9869 19.9525 24.3516 25.5476C22.6709 28.09 21.1335 30.7243 19.7466 33.4382C19.5126 33.8315 19.362 34.2687 19.3041 34.7227C19.2463 35.1767 19.2824 35.6377 19.4103 36.0771C19.8249 37.5151 20.3349 38.9238 20.9366 40.2941C21.0401 40.5269 21.1264 40.8115 21.4541 40.7684C21.7818 40.7253 21.7473 40.4062 21.7904 40.1647C23.9722 28.2899 31.3972 19.5886 39.3482 11.215C40.4865 10.0249 41.6939 8.88661 42.8667 7.72241C42.8667 7.72241 43.729 6.39436 37.6925 10.7752" fill="#7A6A56"/>
</svg>
