<svg width="184" height="22" viewBox="0 0 184 22" fill="none" xmlns="http://www.w3.org/2000/svg">
<path d="M0 21.2615H3.93043V11.8663H12.4149V8.21481H3.93043V4.05462H13.8016V0.403168H0V21.2615Z" fill="#7A6A56"/>
<path d="M17.9047 21.2615H32.1002V17.6183H21.8433V11.7104H32.1002V8.0589H21.8433V4.05462H32.1002V0.403168H17.9047V21.2615Z" fill="#7A6A56"/>
<path d="M47.6905 9.36353C46.9684 9.18301 46.0494 8.99428 45.0155 8.81376C43.9816 8.63324 43.2103 8.49375 42.6687 8.37887C41.9782 8.2944 41.3277 8.00909 40.7978 7.55832C40.4656 7.147 40.3015 6.62517 40.3383 6.09774C40.3446 5.76296 40.4379 5.43558 40.6091 5.14783C40.7804 4.86007 41.0235 4.62186 41.3148 4.45664C42.2068 3.9134 43.2424 3.65308 44.2852 3.70994C45.4745 3.71047 46.6555 3.90731 47.7807 4.29253C48.7677 4.60164 49.6886 5.09132 50.4967 5.7367L50.6855 5.90081H51.7932V1.71601L51.3911 1.54369C49.153 0.589946 46.7426 0.106754 44.3098 0.124139C42.287 0.0513659 40.2967 0.648443 38.648 1.82268C38.0053 2.30131 37.4685 2.90774 37.0715 3.60384C36.6745 4.29993 36.4258 5.07064 36.341 5.86751C36.2562 6.66437 36.3372 7.47015 36.5789 8.23419C36.8206 8.99824 37.2178 9.70402 37.7454 10.3072C38.9107 11.3846 40.3758 12.0828 41.9466 12.3093C42.7672 12.4898 43.5877 12.6375 44.4083 12.7524C45.1027 12.8499 45.7905 12.9896 46.4678 13.1709C47.074 13.3053 47.6377 13.5871 48.1089 13.9914C48.4319 14.3935 48.585 14.9058 48.5356 15.4192C48.5436 15.7932 48.4511 16.1626 48.2678 16.4887C48.0845 16.8149 47.8171 17.0859 47.4935 17.2736C46.4708 17.871 45.2957 18.1562 44.1129 18.0942C42.9426 18.0732 41.7839 17.8597 40.683 17.4624C39.5133 17.0669 38.426 16.4606 37.4746 15.6736L37.2859 15.5259H36.2028V19.883L36.6048 20.0553C37.7459 20.5679 38.9327 20.9718 40.1496 21.2615C41.445 21.5498 42.7694 21.6875 44.0964 21.6718C45.3081 21.6985 46.5162 21.5294 47.674 21.1712C48.6334 20.8521 49.5301 20.369 50.3244 19.7435C51.0256 19.1688 51.5869 18.442 51.9655 17.6183C52.3774 16.815 52.5992 15.9279 52.6138 15.0253C52.6878 13.6629 52.2254 12.3256 51.3255 11.3C50.3198 10.3258 49.06 9.65465 47.6905 9.36353Z" fill="#7A6A56"/>
<path d="M69.5826 0H65.644V20.8584H79.3308V17.2151H69.5826V0Z" fill="#7A6A56"/>
<path d="M81.7921 3.33964H84.3522V17.5269H81.7921V20.8584H90.8428V17.5269H88.2909V3.33964H90.8428V0H81.7921V3.33964Z" fill="#7A6A56"/>
<path d="M100.903 0L93.3047 20.8584H97.4074L99.3193 15.4181H106.811L108.723 20.8584H112.924L105.334 0H100.903ZM100.55 11.8487L103.012 4.93151L105.473 11.8487H100.55Z" fill="#7A6A56"/>
<path d="M115.386 3.33964H117.946V17.5269H115.386V20.8584H124.436V17.5269H121.885V3.33964H124.436V0H115.386V3.33964Z" fill="#7A6A56"/>
<path d="M138.386 9.24534C137.656 9.05661 136.745 8.87609 135.711 8.69557C134.677 8.51504 133.906 8.37555 133.364 8.26067C132.674 8.17621 132.023 7.89089 131.493 7.44012C131.164 7.02761 131.003 6.5059 131.042 5.97955C131.047 5.6454 131.138 5.31824 131.308 5.03042C131.478 4.7426 131.72 4.50408 132.01 4.33845C132.903 3.79617 133.938 3.53592 134.981 3.59175C136.173 3.59302 137.356 3.78983 138.484 4.17434C139.469 4.48349 140.387 4.97322 141.192 5.6185L141.381 5.78262H142.489V1.59781L142.087 1.42549C139.849 0.471752 137.438 -0.0114401 135.005 0.00594455C132.983 -0.0668286 130.992 0.530249 129.344 1.70448C128.701 2.18312 128.164 2.78955 127.767 3.48564C127.37 4.18174 127.121 4.95245 127.037 5.74931C126.952 6.54617 127.033 7.35195 127.274 8.116C127.516 8.88004 127.913 9.58582 128.441 10.189C129.607 11.2647 131.072 11.9626 132.642 12.1911C133.463 12.3634 134.324 12.5111 135.104 12.6342C135.796 12.7316 136.481 12.8713 137.155 13.0527C137.763 13.1834 138.327 13.4657 138.796 13.8732C138.958 14.0715 139.079 14.2996 139.152 14.5446C139.225 14.7896 139.249 15.0466 139.223 15.301C139.231 15.675 139.138 16.0444 138.955 16.3705C138.772 16.6967 138.505 16.9677 138.181 17.1554C137.158 17.7528 135.983 18.038 134.8 17.976C133.63 17.955 132.471 17.7415 131.37 17.3442C130.201 16.9487 129.113 16.3424 128.162 15.5554L127.973 15.4077H126.898V19.7648L127.292 19.9371C128.436 20.4498 129.626 20.8537 130.845 21.1433C132.14 21.4328 133.465 21.5705 134.792 21.5536C136.004 21.5795 137.212 21.4105 138.37 21.053C139.328 20.7321 140.225 20.2492 141.02 19.6253C141.722 19.0512 142.283 18.3243 142.661 17.5001C143.052 16.7119 143.257 15.8445 143.26 14.9646C143.333 13.6037 142.874 12.2679 141.98 11.2393C140.992 10.2522 139.747 9.56152 138.386 9.24534Z" fill="#7A6A56"/>
<path d="M162.564 2.86485C161.708 1.93806 160.657 1.2123 159.487 0.739625C158.208 0.231879 156.842 -0.019062 155.466 0.00112838C154.105 -0.0115605 152.755 0.236327 151.487 0.731417C150.293 1.18998 149.225 1.92376 148.369 2.87305C147.478 3.8837 146.808 5.06849 146.399 6.35218C145.506 9.29454 145.506 12.4359 146.399 15.3782C146.808 16.641 147.473 17.8058 148.352 18.7999C149.214 19.7417 150.277 20.4767 151.462 20.9498C154.041 21.918 156.884 21.918 159.463 20.9498C160.643 20.4729 161.701 19.7351 162.556 18.7917C163.438 17.8025 164.103 16.6398 164.509 15.3782C164.988 13.9141 165.221 12.3808 165.198 10.8406C165.218 9.30719 164.991 7.78062 164.525 6.31936C164.118 5.04264 163.447 3.86573 162.556 2.86485H162.564ZM161.153 10.8406C161.153 13.2284 160.628 15.0582 159.586 16.289C159.059 16.8559 158.421 17.3081 157.711 17.6173C157.002 17.9265 156.236 18.086 155.462 18.086C154.688 18.086 153.923 17.9265 153.213 17.6173C152.504 17.3081 151.866 16.8559 151.339 16.289C150.297 15.0582 149.772 13.2284 149.772 10.8406C149.772 8.45279 150.289 6.64758 151.314 5.40035C151.841 4.82579 152.481 4.36701 153.195 4.05316C153.908 3.7393 154.679 3.57723 155.458 3.57723C156.238 3.57723 157.008 3.7393 157.722 4.05316C158.435 4.36701 159.075 4.82579 159.602 5.40035C160.636 6.64758 161.153 8.47741 161.153 10.8406Z" fill="#7A6A56"/>
<path d="M180.126 0V13.9083L172.757 0H167.661V20.8584H171.428V5.43204L179.609 20.8584H183.892V0H180.126Z" fill="#7A6A56"/>
</svg>
