<svg width="44" height="44" viewBox="0 0 44 44" fill="none" xmlns="http://www.w3.org/2000/svg">
<rect width="44" height="44" rx="10" fill="#E2582A" fill-opacity="0.2"/>
<path d="M19.5 23.75C19.5 24.72 20.25 25.5 21.17 25.5H23.05C23.85 25.5 24.5 24.82 24.5 23.97C24.5 23.06 24.1 22.73 23.51 22.52L20.5 21.47C19.91 21.26 19.51 20.94 19.51 20.02C19.51 19.18 20.16 18.49 20.96 18.49H22.84C23.76 18.49 24.51 19.27 24.51 20.24" stroke="#E2582A" stroke-width="1.5" stroke-linecap="round" stroke-linejoin="round"/>
<path d="M22 17.5V26.5" stroke="#E2582A" stroke-width="1.5" stroke-linecap="round" stroke-linejoin="round"/>
<path d="M32 22C32 27.52 27.52 32 22 32C16.48 32 12 27.52 12 22C12 16.48 16.48 12 22 12" stroke="#E2582A" stroke-width="1.5" stroke-linecap="round" stroke-linejoin="round"/>
<path d="M32 16V12H28" stroke="#E2582A" stroke-width="1.5" stroke-linecap="round" stroke-linejoin="round"/>
<path d="M27 17L32 12" stroke="#E2582A" stroke-width="1.5" stroke-linecap="round" stroke-linejoin="round"/>
</svg>
