<svg width="44" height="44" viewBox="0 0 44 44" fill="none" xmlns="http://www.w3.org/2000/svg">
<rect width="44" height="44" rx="10" fill="#528F75" fill-opacity="0.2"/>
<path d="M23 19H17" stroke="#528F75" stroke-width="1.5" stroke-linecap="round" stroke-linejoin="round"/>
<path d="M31.9963 20.9699V23.03C31.9963 23.58 31.5563 24.0299 30.9963 24.0499H29.0363C27.9563 24.0499 26.9663 23.2599 26.8763 22.1799C26.8163 21.5499 27.0563 20.9599 27.4763 20.5499C27.8463 20.1699 28.3563 19.95 28.9163 19.95H30.9963C31.5563 19.97 31.9963 20.4199 31.9963 20.9699Z" stroke="#528F75" stroke-width="1.5" stroke-linecap="round" stroke-linejoin="round"/>
<path d="M27.48 20.55C27.06 20.96 26.82 21.55 26.88 22.18C26.97 23.26 27.96 24.05 29.04 24.05H31V25.5C31 28.5 29 30.5 26 30.5H17C14 30.5 12 28.5 12 25.5V18.5C12 15.78 13.64 13.88 16.19 13.56C16.45 13.52 16.72 13.5 17 13.5H26C26.26 13.5 26.51 13.51 26.75 13.55C29.33 13.85 31 15.76 31 18.5V19.95H28.92C28.36 19.95 27.85 20.17 27.48 20.55Z" stroke="#528F75" stroke-width="1.5" stroke-linecap="round" stroke-linejoin="round"/>
</svg>
