<svg width="187" height="187" viewBox="0 0 187 187" fill="none" xmlns="http://www.w3.org/2000/svg">
<rect width="187" height="187" rx="10" fill="#EFEFEF"/>
<path d="M80.4998 134.667H105.5C126.333 134.667 134.666 126.333 134.666 105.5V80.4999C134.666 59.6666 126.333 51.3333 105.5 51.3333H80.4998C59.6665 51.3333 51.3331 59.6666 51.3331 80.4999V105.5C51.3331 126.333 59.6665 134.667 80.4998 134.667Z" stroke="#3B3B3B" stroke-width="1.5" stroke-linecap="round" stroke-linejoin="round"/>
<path d="M80.5 84.6667C85.1023 84.6667 88.8333 80.9357 88.8333 76.3333C88.8333 71.731 85.1023 68 80.5 68C75.8976 68 72.1666 71.731 72.1666 76.3333C72.1666 80.9357 75.8976 84.6667 80.5 84.6667Z" stroke="#3B3B3B" stroke-width="1.5" stroke-linecap="round" stroke-linejoin="round"/>
<path d="M54.1249 121.959L74.6665 108.167C77.9582 105.959 82.7082 106.209 85.6665 108.751L87.0415 109.959C90.2915 112.751 95.5415 112.751 98.7915 109.959L116.125 95.084C119.375 92.2923 124.625 92.2923 127.875 95.084L134.667 100.917" stroke="#3B3B3B" stroke-width="1.5" stroke-linecap="round" stroke-linejoin="round"/>
</svg>
