<svg width="108" height="108" viewBox="0 0 108 108" fill="none" xmlns="http://www.w3.org/2000/svg">
<path d="M54.037 107.074C83.6047 107.074 107.574 83.1047 107.574 53.537C107.574 23.9693 83.6047 0 54.037 0C24.4693 0 0.5 23.9693 0.5 53.537C0.5 83.1047 24.4693 107.074 54.037 107.074Z" fill="#528F75"/>
<path d="M46.8218 89.6594C40.4241 89.6594 35.0126 83.6531 30.7088 79.3492L18.8905 67.5315C14.8386 63.4796 14.8386 56.9102 18.8905 52.8583C22.9421 48.8067 29.5114 48.8067 33.5638 52.8583L45.3821 64.6764C45.8752 65.1696 46.4373 65.273 46.8218 65.273C47.2063 65.273 47.7684 65.1696 48.2616 64.6764L79.752 33.1864C83.804 29.1348 90.3733 29.1348 94.4252 33.1864C98.4772 37.2383 98.4772 43.8076 94.4252 47.8596L62.9348 79.3492C58.631 83.6531 53.2195 89.6594 46.8218 89.6594Z" fill="white"/>
</svg>
