<svg width="44" height="44" viewBox="0 0 44 44" fill="none" xmlns="http://www.w3.org/2000/svg">
<rect width="44" height="44" rx="10" fill="#7A6A56" fill-opacity="0.2"/>
<path d="M22.53 30.4201H16.21C13.05 30.4201 12 28.3201 12 26.2101V17.7901C12 14.6301 13.05 13.5801 16.21 13.5801H22.53C25.69 13.5801 26.74 14.6301 26.74 17.7901V26.2101C26.74 29.3701 25.68 30.4201 22.53 30.4201Z" stroke="#7A6A56" stroke-width="1.5" stroke-linecap="round" stroke-linejoin="round"/>
<path d="M29.5222 27.1001L26.7422 25.1501V18.8401L29.5222 16.8901C30.8822 15.9401 32.0022 16.5201 32.0022 18.1901V25.8101C32.0022 27.4801 30.8822 28.0601 29.5222 27.1001Z" stroke="#7A6A56" stroke-width="1.5" stroke-linecap="round" stroke-linejoin="round"/>
<path d="M21.5 21C22.3284 21 23 20.3284 23 19.5C23 18.6716 22.3284 18 21.5 18C20.6716 18 20 18.6716 20 19.5C20 20.3284 20.6716 21 21.5 21Z" stroke="#7A6A56" stroke-width="1.5" stroke-linecap="round" stroke-linejoin="round"/>
</svg>
