<svg width="44" height="44" viewBox="0 0 44 44" fill="none" xmlns="http://www.w3.org/2000/svg">
<rect width="44" height="44" rx="10" fill="#EFC028" fill-opacity="0.2"/>
<path d="M13.1719 17.4399L22.0019 22.5499L30.7719 17.4699" stroke="#EFC028" stroke-width="1.5" stroke-linecap="round" stroke-linejoin="round"/>
<path d="M22 31.61V22.54" stroke="#EFC028" stroke-width="1.5" stroke-linecap="round" stroke-linejoin="round"/>
<path d="M19.9306 12.48L14.5906 15.45C13.3806 16.12 12.3906 17.8 12.3906 19.18V24.83C12.3906 26.21 13.3806 27.89 14.5906 28.56L19.9306 31.53C21.0706 32.16 22.9406 32.16 24.0806 31.53L29.4206 28.56C30.6306 27.89 31.6206 26.21 31.6206 24.83V19.18C31.6206 17.8 30.6306 16.12 29.4206 15.45L24.0806 12.48C22.9306 11.84 21.0706 11.84 19.9306 12.48Z" stroke="#EFC028" stroke-width="1.5" stroke-linecap="round" stroke-linejoin="round"/>
<path d="M26.9978 23.2401V19.5801L17.5078 14.1001" stroke="#EFC028" stroke-width="1.5" stroke-linecap="round" stroke-linejoin="round"/>
</svg>
