<svg width="250" height="90" viewBox="0 0 250 90" fill="none" xmlns="http://www.w3.org/2000/svg">
<path d="M124.997 45.8334C136.503 45.8334 145.831 36.506 145.831 25.0001C145.831 13.4941 136.503 4.16675 124.997 4.16675C113.491 4.16675 104.164 13.4941 104.164 25.0001C104.164 36.506 113.491 45.8334 124.997 45.8334Z" stroke="#3B3B3B" stroke-width="2" stroke-linecap="round" stroke-linejoin="round"/>
<path d="M125 16.6667V25.0001" stroke="#3B3B3B" stroke-width="2" stroke-linecap="round" stroke-linejoin="round"/>
<path d="M125 33.3333H125.021" stroke="#3B3B3B" stroke-width="2" stroke-linecap="round" stroke-linejoin="round"/>
<path d="M91.218 76.55V83.648H92.912V78.202H101.032V83.578H102.796V76.55H91.218ZM92.1 81.212V82.864H102.012V81.212H92.1ZM96.076 74.114V87.26H97.854V74.114H96.076ZM111.49 78.51V80.19H116.656V78.51H111.49ZM104.56 84.88V86.546H117.412V84.88H104.56ZM110.664 74.114V85.762H112.456V74.114H110.664ZM106.352 77.012V85.692H108.102V77.012H106.352ZM121.122 75.262V77.082C121.528 77.04 122.116 77.026 122.578 77.026C123.404 77.026 127.156 77.026 127.926 77.026C128.444 77.026 129.102 77.054 129.466 77.082V75.262C129.088 75.318 128.402 75.346 127.954 75.346C127.142 75.346 123.46 75.346 122.578 75.346C122.102 75.346 121.5 75.318 121.122 75.262ZM130.656 79.336L129.41 78.552C129.214 78.65 128.836 78.706 128.374 78.706C127.422 78.706 122.41 78.706 121.458 78.706C121.01 78.706 120.422 78.664 119.82 78.608V80.428C120.408 80.386 121.108 80.372 121.458 80.372C122.704 80.372 127.506 80.372 128.206 80.372C127.968 81.142 127.52 82.024 126.778 82.78C125.7 83.886 124.034 84.796 121.92 85.244L123.32 86.826C125.112 86.308 126.904 85.37 128.318 83.788C129.354 82.64 129.956 81.268 130.39 79.91C130.432 79.77 130.558 79.518 130.656 79.336ZM132.868 80.568L133.736 82.332C135.948 81.674 138.216 80.624 139.798 79.686C141.45 78.692 143.158 77.376 144.432 76.088L142.92 74.66C142.01 75.766 140.414 77.166 138.986 78.048C137.418 79.014 135.374 79.924 132.868 80.568ZM138.692 78.958V84.796C138.692 85.412 138.636 86.294 138.58 86.63H140.806C140.708 86.28 140.68 85.412 140.68 84.796V78.482L138.692 78.958ZM156.626 74.212L155.464 74.688C155.828 75.248 156.248 75.962 156.528 76.55L157.69 76.06C157.438 75.542 156.976 74.744 156.626 74.212ZM158.572 73.848L157.41 74.324C157.802 74.842 158.236 75.626 158.53 76.2L159.692 75.71C159.426 75.206 158.936 74.366 158.572 73.848ZM158.068 76.844L156.682 75.962C156.318 76.06 155.87 76.074 155.59 76.074C154.806 76.074 150.158 76.074 149.108 76.074C148.646 76.074 147.862 76.004 147.442 75.948V77.936C147.806 77.908 148.478 77.866 149.108 77.866C150.158 77.866 154.792 77.866 155.632 77.866C155.45 79.07 154.918 80.666 153.98 81.828C152.86 83.242 151.278 84.46 148.506 85.104L150.032 86.784C152.524 85.986 154.386 84.6 155.66 82.92C156.822 81.366 157.438 79.182 157.76 77.81C157.83 77.516 157.942 77.11 158.068 76.844Z" fill="#3B3B3B"/>
</svg>
