<svg width="24" height="24" viewBox="0 0 24 24" fill="none" xmlns="http://www.w3.org/2000/svg">
<path d="M7.42273 9.55161C7.20293 8.95975 6.2932 8.97029 6.0871 9.56687L4.37035 14.0743C4.0873 14.8278 5.23085 15.2627 5.52022 14.5123L5.79687 13.7859H7.70582L7.97927 14.5105C8.27089 15.2648 9.41055 14.8272 9.1305 14.0761L7.42937 9.56838C7.42728 9.56277 7.42507 9.55719 7.42273 9.55161ZM6.26551 12.5555L6.75573 11.2684L7.24148 12.5555H6.26551Z" fill="#3B3B3B"/>
<path d="M19.0546 10.3569C19.3944 10.3569 19.6698 10.0815 19.6698 9.7417C19.6698 9.40193 19.3944 9.12646 19.0546 9.12646H17.1458C16.806 9.12646 16.5305 9.40193 16.5305 9.7417V14.2719C16.5305 14.6116 16.806 14.8871 17.1458 14.8871H19.0546C19.3944 14.8871 19.6698 14.6116 19.6698 14.2719C19.6698 13.9321 19.3944 13.6566 19.0546 13.6566H17.761V12.622H18.9138C19.2536 12.622 19.529 12.3465 19.529 12.0068C19.529 11.667 19.2536 11.3915 18.9138 11.3915H17.761V10.3569H19.0546Z" fill="#3B3B3B"/>
<path d="M12.762 10.3222C13.0968 10.3222 13.4197 10.4207 13.6957 10.6072C13.9773 10.7974 14.3597 10.7234 14.5499 10.4418C14.7401 10.1603 14.6661 9.77787 14.3845 9.58763C13.9044 9.26324 13.3433 9.0918 12.762 9.0918C11.1623 9.0918 9.86084 10.3933 9.86084 11.993C9.86084 13.5926 11.1623 14.8941 12.762 14.8941C14.2861 14.8941 15.3505 13.7011 15.3505 11.993C15.3505 11.6532 15.0751 11.3777 14.7353 11.3777H13.3676C13.0279 11.3777 12.7524 11.6532 12.7524 11.993C12.7524 12.3327 13.0279 12.6082 13.3676 12.6082H14.0412C13.8887 13.1742 13.5012 13.6636 12.762 13.6636C11.8407 13.6636 11.0913 12.9142 11.0913 11.993C11.0913 11.0717 11.8407 10.3222 12.762 10.3222Z" fill="#3B3B3B"/>
<path d="M15.561 3.49333L15.561 3.49333C16.1657 3.74674 16.7409 4.06432 17.2784 4.44064L16.5902 4.52734L16.59 4.52737C16.3762 4.55538 16.2231 4.65847 16.1295 4.79799C16.0367 4.93643 16.0046 5.10752 16.0255 5.27009C16.0464 5.43265 16.1207 5.5901 16.245 5.70078C16.3704 5.81231 16.5439 5.87379 16.7565 5.8474L16.7566 5.84739L18.9565 5.57025C19.3111 5.54026 19.5915 5.20329 19.5545 4.84869C19.5545 4.84854 19.5545 4.8484 19.5544 4.84825L19.3584 2.64069C19.3259 2.27474 19.0028 2.00424 18.6369 2.03689C18.271 2.06939 18.0006 2.39243 18.0331 2.75835L18.0887 3.38384C17.4602 2.93872 16.7855 2.56395 16.0754 2.26632C14.7838 1.72463 13.4125 1.45 12 1.45C9.18209 1.45 6.5326 2.54747 4.54004 4.54004C2.54747 6.5326 1.45 9.18209 1.45 12C1.45 14.8179 2.54747 17.4674 4.54004 19.46C6.5326 21.4525 9.18209 22.55 12 22.55C14.8179 22.55 17.4674 21.4525 19.46 19.46C21.4525 17.4674 22.55 14.8179 22.55 12C22.55 11.6326 22.2522 11.3348 21.8848 11.3348C21.5174 11.3348 21.2195 11.6326 21.2195 12C21.2195 14.4627 20.2606 16.7778 18.5192 18.5192C16.7778 20.2606 14.4627 21.2195 12 21.2195C9.53731 21.2195 7.22223 20.2606 5.48081 18.5192C3.7394 16.7778 2.78047 14.4627 2.78047 12C2.78047 9.53727 3.7394 7.22223 5.48081 5.48081C7.22223 3.7394 9.53731 2.78047 12 2.78047C13.2351 2.78047 14.4331 3.0203 15.561 3.49333Z" fill="#3B3B3B" stroke="#3B3B3B" stroke-width="0.1"/>
</svg>
