<svg width="24" height="24" viewBox="0 0 24 24" fill="none" xmlns="http://www.w3.org/2000/svg">
<path d="M12.6652 7.07812C12.6652 3.99939 10.1577 1.45 7.07812 1.45C3.99899 1.45 1.45 3.99891 1.45 7.07812C1.45 9.93186 3.65329 12.268 6.41289 12.5983V16.2566H4.61719C4.245 16.2566 3.95195 16.5497 3.95195 16.9219C3.95195 17.294 4.245 17.5871 4.61719 17.5871H6.41289V19.3828C6.41289 19.7549 6.70593 20.048 7.07812 20.048C7.45032 20.048 7.74336 19.7549 7.74336 19.3828V17.5871H9.53906C9.91125 17.5871 10.2043 17.294 10.2043 16.9219C10.2043 16.5497 9.91125 16.2566 9.53906 16.2566H7.74336V12.5983C10.503 12.268 12.6652 9.93136 12.6652 7.07812ZM7.07812 11.3348C4.73032 11.3348 2.78047 9.4247 2.78047 7.07812C2.78047 4.73093 4.73093 2.78047 7.07812 2.78047C9.4247 2.78047 11.3348 4.73032 11.3348 7.07812C11.3348 9.42532 9.42532 11.3348 7.07812 11.3348Z" fill="#3B3B3B" stroke="#3B3B3B" stroke-width="0.1"/>
<path d="M22.55 16.9219C22.55 14.0682 20.3467 11.732 17.5871 11.4017V6.22599L18.9165 7.54375C19.1697 7.80973 19.5954 7.80985 19.8488 7.54412C20.1146 7.29066 20.1144 6.8649 19.8484 6.61164L17.3883 4.15158C17.1349 3.88541 16.7089 3.88541 16.4555 4.15157L13.9954 6.61163C13.7293 6.8649 13.7292 7.29067 13.9949 7.54412C14.2484 7.80986 14.674 7.80973 14.9273 7.54375L16.2567 6.22599V11.4017C13.497 11.732 11.3348 14.0687 11.3348 16.9219C11.3348 20.0005 13.8423 22.55 16.9219 22.55C20.001 22.55 22.55 20.001 22.55 16.9219ZM16.9219 21.2195C14.5753 21.2195 12.6652 19.2697 12.6652 16.9219C12.6652 14.5747 14.5747 12.6652 16.9219 12.6652C19.2697 12.6652 21.2195 14.5753 21.2195 16.9219C21.2195 19.2691 19.2691 21.2195 16.9219 21.2195Z" fill="#3B3B3B" stroke="#3B3B3B" stroke-width="0.1"/>
</svg>
