<svg width="40" height="40" viewBox="0 0 40 40" fill="none" xmlns="http://www.w3.org/2000/svg">
<rect width="40" height="40" rx="10" fill="#7A6A56"/>
<path d="M28.3307 15.2084V19.4584C28.3307 20.5167 27.9807 21.4084 27.3557 22.0251C26.7391 22.6501 25.8474 23.0001 24.7891 23.0001V24.5084C24.7891 25.0751 24.1557 25.4167 23.6891 25.1001L22.8807 24.5667C22.9557 24.3084 22.9891 24.0251 22.9891 23.7251V20.3334C22.9891 18.6334 21.8557 17.5001 20.1557 17.5001H14.4974C14.3807 17.5001 14.2724 17.5084 14.1641 17.5168V15.2084C14.1641 13.0834 15.5807 11.6667 17.7057 11.6667H24.7891C26.9141 11.6667 28.3307 13.0834 28.3307 15.2084Z" stroke="white" stroke-width="1.5" stroke-miterlimit="10" stroke-linecap="round" stroke-linejoin="round"/>
<path d="M22.9891 20.3334V23.725C22.9891 24.025 22.9557 24.3083 22.8807 24.5667C22.5724 25.7917 21.5557 26.5583 20.1557 26.5583H17.8891L15.3724 28.2333C14.9974 28.4917 14.4974 28.2167 14.4974 27.7667V26.5583C13.6474 26.5583 12.9391 26.275 12.4474 25.7833C11.9474 25.2833 11.6641 24.575 11.6641 23.725V20.3334C11.6641 18.75 12.6474 17.6583 14.1641 17.5167C14.2724 17.5083 14.3807 17.5 14.4974 17.5H20.1557C21.8557 17.5 22.9891 18.6334 22.9891 20.3334Z" stroke="white" stroke-width="1.5" stroke-miterlimit="10" stroke-linecap="round" stroke-linejoin="round"/>
</svg>
