<svg width="10" height="10" viewBox="0 0 10 10" fill="none" xmlns="http://www.w3.org/2000/svg">
<g clip-path="url(#clip0_7163_58846)">
<path d="M7.83061 3.71951C8.2421 4.44121 8.56174 5.00179 8.76909 5.45707C8.97723 5.91405 9.09476 6.31073 9.05473 6.69645C8.99118 7.30862 8.67399 7.86592 8.18033 8.22909C7.86851 8.45849 7.4683 8.55401 6.97283 8.60003C6.47934 8.64588 5.83973 8.64588 5.01715 8.64587L4.98287 8.64587C4.16029 8.64588 3.52068 8.64588 3.02719 8.60003C2.53172 8.55401 2.1315 8.45849 1.81969 8.22909C1.32603 7.86592 1.00883 7.30862 0.945289 6.69645C0.905251 6.31073 1.02279 5.91405 1.23092 5.45707C1.43828 5.0018 1.75791 4.44122 2.1694 3.71953L2.1861 3.69023C2.59757 2.96859 2.91721 2.40799 3.20295 1.99847C3.4895 1.58777 3.77072 1.28504 4.12282 1.12631C4.6811 0.874619 5.31891 0.874619 5.8772 1.12631C6.22929 1.28504 6.51051 1.58777 6.79707 1.99847C7.08281 2.40799 7.40245 2.96859 7.81391 3.69024L7.83061 3.71951Z" fill="#888888" stroke="#888888" stroke-width="1.5"/>
</g>
<defs>
<clipPath id="clip0_7163_58846">
<rect width="10" height="10" fill="white" transform="matrix(-4.37114e-08 -1 -1 4.37114e-08 10 10)"/>
</clipPath>
</defs>
</svg>
