<svg width="10" height="10" viewBox="0 0 10 10" fill="none" xmlns="http://www.w3.org/2000/svg">
<g clip-path="url(#clip0_10586_50926)">
<path d="M7.83061 3.71939C8.2421 4.44108 8.56174 5.00167 8.76909 5.45695C8.97723 5.91393 9.09476 6.31061 9.05473 6.69633C8.99118 7.3085 8.67399 7.86579 8.18033 8.22897C7.86851 8.45837 7.4683 8.55388 6.97283 8.59991C6.47934 8.64576 5.83973 8.64575 5.01715 8.64575L4.98287 8.64575C4.16029 8.64575 3.52068 8.64576 3.02719 8.59991C2.53172 8.55388 2.1315 8.45837 1.81969 8.22897C1.32603 7.8658 1.00883 7.3085 0.945289 6.69633C0.905251 6.31061 1.02279 5.91393 1.23092 5.45695C1.43828 5.00167 1.75791 4.44109 2.1694 3.71941L2.1861 3.69011C2.59757 2.96847 2.91721 2.40787 3.20295 1.99834C3.4895 1.58765 3.77072 1.28492 4.12282 1.12619C4.6811 0.874497 5.31891 0.874497 5.8772 1.12619C6.22929 1.28492 6.51051 1.58765 6.79707 1.99834C7.08281 2.40787 7.40245 2.96847 7.81391 3.69012L7.83061 3.71939Z" fill="white" stroke="white" stroke-width="1.5"/>
</g>
<defs>
<clipPath id="clip0_10586_50926">
<rect width="10" height="10" fill="white" transform="matrix(-4.37114e-08 -1 -1 4.37114e-08 10 10)"/>
</clipPath>
</defs>
</svg>
