<svg width="18" height="18" viewBox="0 0 18 18" fill="none" xmlns="http://www.w3.org/2000/svg">
<path d="M9 17C10.5823 17 12.129 16.5308 13.4446 15.6518C14.7602 14.7727 15.7855 13.5232 16.391 12.0614C16.9965 10.5996 17.155 8.99111 16.8463 7.43926C16.5376 5.88741 15.7757 4.46199 14.6569 3.34317C13.538 2.22435 12.1126 1.4624 10.5607 1.15371C9.00887 0.845032 7.40035 1.00349 5.93854 1.60899C4.47673 2.21449 3.22729 3.23988 2.34824 4.55547C1.46919 5.87107 1 7.41775 1 9C1 11.1217 1.84285 13.1565 3.34314 14.6568C4.84343 16.1571 6.87827 17 9 17Z" stroke="#3B3B3B" stroke-width="1.5" stroke-linecap="round" stroke-linejoin="round"/>
<path d="M9 4.2002V9.0002L12.2 10.6002" stroke="#3B3B3B" stroke-width="1.5" stroke-linecap="round" stroke-linejoin="round"/>
</svg>
