<svg width="20" height="20" viewBox="0 0 20 20" fill="none" xmlns="http://www.w3.org/2000/svg">
<path d="M10.625 2.5C10.625 2.15482 10.3452 1.875 10 1.875C9.65483 1.875 9.37501 2.15482 9.37501 2.5V13.1754C9.10612 12.9025 8.78646 12.5009 8.32128 11.9142L7.15641 10.445C6.94195 10.1746 6.54884 10.1291 6.27836 10.3436C6.00789 10.5581 5.96248 10.9512 6.17694 11.2216L7.36547 12.7206C7.80979 13.281 8.17644 13.7435 8.5046 14.0729C8.84136 14.411 9.21514 14.6912 9.69278 14.7673C9.79454 14.7835 9.89719 14.7917 10 14.7917C10.1028 14.7917 10.2055 14.7835 10.3072 14.7673C10.7849 14.6912 11.1587 14.411 11.4954 14.0729C11.8236 13.7435 12.1902 13.281 12.6345 12.7206L13.8231 11.2216C14.0375 10.9512 13.9921 10.5581 13.7216 10.3436C13.4512 10.1291 13.0581 10.1746 12.8436 10.445L11.6787 11.9142C11.2135 12.5009 10.8939 12.9025 10.625 13.1754V2.5Z" fill="#3B3B3B"/>
<path d="M17.1667 8.79131C16.9594 8.51531 16.5676 8.45963 16.2916 8.66694C16.0156 8.87424 15.9599 9.26603 16.1672 9.54203C16.6118 10.1339 16.875 10.8686 16.875 11.6667V12.5C16.875 13.2981 16.8731 13.6243 16.8314 13.8874C16.5914 15.4028 15.4028 16.5914 13.8874 16.8314C13.6243 16.8731 13.2981 16.875 12.5 16.875H7.50001C6.70195 16.875 6.37569 16.8731 6.11263 16.8314C4.59718 16.5914 3.40863 15.4028 3.16861 13.8874C3.12695 13.6243 3.12501 13.2981 3.12501 12.5V11.6667C3.12501 10.8686 3.3882 10.1339 3.83276 9.54203C4.04007 9.26603 3.98439 8.87424 3.7084 8.66694C3.4324 8.45963 3.04061 8.51531 2.83331 8.79131C2.23173 9.59221 1.87501 10.5887 1.87501 11.6667L1.875 12.5673C1.87495 13.2774 1.87491 13.7099 1.934 14.0829C2.25874 16.1332 3.86677 17.7413 5.91709 18.066C6.29016 18.1251 6.72265 18.1251 7.43267 18.125H12.5673C13.2774 18.1251 13.7099 18.1251 14.0829 18.066C16.1332 17.7413 17.7413 16.1332 18.066 14.0829C18.1251 13.7098 18.1251 13.2774 18.125 12.5673L18.125 11.6667C18.125 10.5887 17.7683 9.59221 17.1667 8.79131Z" fill="#3B3B3B"/>
</svg>
