<svg width="40" height="40" viewBox="0 0 40 40" fill="none" xmlns="http://www.w3.org/2000/svg">
<path d="M25.1224 8.67763C22.2357 7.03165 19.9933 5.75312 18.1722 4.92369C16.3443 4.09116 14.7576 3.621 13.2147 3.78115C10.766 4.03532 8.53682 5.3041 7.08411 7.27874C6.16652 8.52601 5.78446 10.1269 5.60035 12.1088C5.41698 14.0827 5.41698 16.6411 5.41699 19.9315V20.0686C5.41698 23.3589 5.41698 25.9173 5.60035 27.8913C5.78446 29.8732 6.16652 31.474 7.08411 32.7213C8.53682 34.696 10.766 35.9647 13.2147 36.2189C14.7576 36.3791 16.3443 35.9089 18.1722 35.0764C19.9933 34.2469 22.2356 32.9684 25.1224 31.3225L25.2396 31.2556C28.1261 29.6098 30.3685 28.3312 32.0066 27.1883C33.6494 26.042 34.8603 24.9172 35.4953 23.5088C36.502 21.2756 36.502 18.7244 35.4953 16.4913C34.8603 15.0829 33.6494 13.958 32.0066 12.8118C30.3685 11.6688 28.1261 10.3903 25.2395 8.7444L25.1224 8.67763Z" fill="white"/>
</svg>
